# xmcd CD database file
#
# Track frame offsets:
#	150
#	10853
#	31473
#	49628
#	62095
#	81538
#	112075
#	135413
#	157510
#	168880
#	190963
#	212018
#	221578
#	228858
#	242013
#	245148
#	257330
#	274430
#	295665
#	313290
#
# Disc length: 4428 seconds
#
# Revision: 0
# Processed by: cddbd v1.5.1PL2 Copyright (c) Steve Scherf et al.
# Submitted via: CDex 1.51
#
DISCID=1c114a14
DTITLE=Various Artist - TRANCE HEAVEN meets 超ワールドサッカー SOCCER TRANCE
DYEAR=1900
DGENRE=Trance
TTITLE0=WORLD FOOTBALL ANTHEM - ARCHIBOLD
TTITLE1=GO WEST - Star Gate
TTITLE2=翼をください - XCODE
TTITLE3=O Campeao (Meu Time) - Star Gate
TTITLE4=THE ENTERTAINER - MERDOG
TTITLE5=VITTORIA (AIDA) - MERDOG
TTITLE6=POP GOES THE WORLD (VAMOS NIPPON) - ARCHIBOLD
TTITLE7=PASSION - MERDOG
TTITLE8=You'll never walk alone - Star Gate
TTITLE9=島唄 (IKUYA REMIX) - IKUYA
TTITLE10=DSCHINGHIS KHAN - DUSTRUSH
TTITLE11=COOL CRIMINAL (SOCCER-TV MEDLEY) - SAMURAI VS RYO-G
TTITLE12=THE BOXER (SOCCER-TV MEDLEY) - SAMURAI
TTITLE13=THE ROCKAFELLER SKANK (SOCCER-TV MEDLEY) - SAMURAI VS RYO-G
TTITLE14=NEVER GIVE UP (SOCCER-TV MEDLEY) - SAMURAI
TTITLE15=SPEED OF SOUND (SOCCER-TV MEDLEY) - SAMURAI
TTITLE16=A QUESTION OF HONOUR (SPDC-remix) - DE WELTIGA
TTITLE17=WE ARE THE CHAMP (ANDERLECHT CHAMPION (OLE OLE OLE)) - DUSTRUSH
TTITLE18=THE WORLD CUP ANTHEM 2002 - ARCHIBOLD
TTITLE19=UEFA CHAMPIONS LEAGUE MUSIC - MERDOG
EXTD=
EXTT0=
EXTT1=
EXTT2=
EXTT3=
EXTT4=
EXTT5=
EXTT6=
EXTT7=
EXTT8=
EXTT9=
EXTT10=
EXTT11=
EXTT12=
EXTT13=
EXTT14=
EXTT15=
EXTT16=
EXTT17=
EXTT18=
EXTT19=
PLAYORDER=
